Patient5_TMGait_0pt45_1_left_13_EMG.mot
version=1
nRows=29
nColumns=33
inDegrees=no
endheader
time	1LAddLong	2LGlutMax	3LGlutMed	4LIliopsoas	5LSemiMemb	6LBicFemLong	7LRecFem	8LTensFascLat	9LVastMed	10LVasLat	11LGasMed	12lGasLat	13LTibAnt	14LPeroneusLong	15LSol	16LTibPost	17RAddLong	18RGlutMax	19RGlutMed	20RIliopsoas	21RSemiMemb	22RBicFemLong	23RRecFem	24RTensFascLat	25RVastMed	26RVasLat	27RGasMed	28RGasLat	29RTibAnt	30RPeroneusLong	31RSol	32RTibPost
20.792	0.003204	-0.016174	-0.21378	0.002136	0.019836	-0.047913	-0.037384	-0.22659	-0.088348	-0.043335	0.003967	-0.011139	0.002441	-0.012512	-0.023804	0.012207	-0.010681	-0.000763	-0.037689	-0.020599	0.11246	-0.006256	-0.003815	0.12924	0.02533	0.019989	0.005493	-0.011749	-0.009766	-0.048828	0.017242	-0.020447
20.793	-0.007324	-0.001831	-0.22018	-0.005798	0.009308	-0.033875	-0.035095	-0.2388	-0.048828	-0.064392	0.009613	-0.005341	-0.054321	0.018463	-0.09903	0.03891	-0.019531	-0.002747	-0.068512	-0.13687	0.13794	0.006561	-0.005035	0.12039	0.025635	0.014191	0.009308	-0.012054	-0.04425	-0.060577	0.015411	-0.026855
20.794	-0.014801	-0.000763	-0.21774	-0.002136	-0.024261	-0.023499	-0.020599	-0.22919	-0.021973	-0.083618	-0.040131	-0.009613	-0.066681	0.024567	-0.088043	-0.12741	-0.007629	-0.006409	-0.14313	0.20645	0.11307	0.011292	-0.001221	0.088806	0.021515	0.015717	0.006714	0.003815	-0.072937	-0.071106	0.02182	-0.026093
20.795	-0.017242	0.011749	-0.14328	-0.02182	-0.019226	-0.054779	-0.028534	-0.2478	-0.010529	-0.099487	-0.093689	-0.006256	-0.076752	0.004425	-0.025482	0.10971	-0.009918	-0.003815	-0.16251	-0.014343	0.10757	0.006409	0.001373	0.076141	0.005341	0.03067	0.007935	0.010376	-0.058289	-0.050507	0.024261	-0.021057
20.796	0.006561	0.015717	-0.080566	-0.019989	-0.003052	-0.094604	-0.019989	-0.23178	0.016937	-0.061035	-0.12878	0.009918	-0.088348	-0.007324	-0.024567	-0.11856	-0.000458	-0.000458	-0.11505	-0.043182	0.10284	0.014038	-0.003357	0.075226	0.015106	0.028534	0.005951	0.009155	-0.0354	-0.054626	0.019684	-0.023804
20.797	0.003204	0.03479	0.045013	-0.003204	0.071564	-0.062408	-0.01297	-0.19363	0.028992	-0.021667	-0.089264	0.013733	-0.059814	-0.018768	-0.071106	0.016479	0	0.002747	-0.16464	-0.067139	0.072479	0.005798	-0.00824	0.07309	0.020294	0.012054	0.008698	0.005188	-0.030518	-0.059204	0.014343	-0.027008
20.798	0.003357	0.033722	0.088043	-0.003662	0.080872	-0.063782	-0.015259	-0.23102	0.020447	-0.013123	-0.064697	0.011444	-0.054474	-0.033112	-0.087128	0.035553	-0.003662	0.000916	-0.093079	-0.0737	0.068054	0.011139	-0.014496	0.04837	0.012817	0.003052	0.007019	0.003204	0.003815	-0.052032	0.011292	-0.020905
20.799	-0.005493	0.020142	0.12497	0.008392	0.022736	-0.050507	-0.002441	-0.26276	0.00351	0.011444	0.14496	0.01297	0.001831	-0.009003	-0.049438	0.10696	-0.013123	0.002441	0.11139	0.041962	0.058136	0.007477	-0.015106	0.028381	0.014801	-0.004272	0.005341	-0.014801	0.056458	-0.047302	0.007172	-0.020752
20.8	-0.001373	0.003815	0.10132	0.003662	0.072327	-0.028534	-0.004425	-0.21637	-0.002899	0.015411	0.10956	0.013733	0.02243	-0.011292	-0.1561	0.11795	-0.009766	0	0.10788	-0.18738	0.060577	0.003052	-0.016174	0.014191	0.036316	-0.007324	0.001221	-0.032959	0.052032	-0.067444	0.007172	-0.023651
20.801	0.005493	-0.00946	-0.001678	0.011139	0.14587	-0.042114	-0.008087	-0.20477	0.05188	0.032501	0.005341	0.027618	0.002441	-0.003052	-0.10834	0.005951	-0.016174	0.003052	0.11704	0.009918	0.069427	0.004272	-0.013123	0.002594	0.046234	-0.009155	0.006256	-0.036774	0.030518	-0.069275	0.00351	-0.019836
20.802	0.004883	0.00473	-0.098114	-0.004578	0.15915	-0.055237	-0.009003	-0.22079	0.072632	0.045013	-0.024872	0.003815	-0.03067	0.002747	0.001831	0.007477	-0.014648	0.002441	0.10193	-0.049286	0.0737	-0.005493	-0.020752	-0.003357	0.055542	-0.001678	0.007324	-0.02594	0.02121	-0.049744	0.005035	-0.021667
20.803	0.00473	0.014496	-0.098877	-0.009766	0.063477	-0.058899	0.000153	-0.14282	0.053253	0.058746	0.048065	-0.004578	-0.033722	-0.007935	0.093994	0.064392	-0.013123	-0.002441	0.087585	0.016479	0.06897	-0.007019	-0.014648	-0.027466	0.070343	0.003052	0.006104	-0.003204	0.004425	-0.016632	0.009003	-0.026703
20.804	0.003052	0.01297	-0.079193	-0.004883	-0.049286	-0.026093	0.010529	-0.19287	0.030975	0.035706	0.040894	-0.00885	-0.064087	-0.027466	0.028992	0.15854	-0.003357	-0.000305	0.04715	0.026245	0.028534	-0.006866	-0.018616	-0.08194	0.074615	-0.001984	0.002441	0.015717	-0.007782	-0.016937	0.01236	-0.02121
20.805	0.002747	0.007172	-0.066833	-0.001221	-0.093842	-0.015564	0.003815	-0.19348	0.032349	0.018921	0.046997	-0.012512	-0.030518	-0.025024	0.007935	-0.005035	0.007782	0.002136	0.0383	-0.050354	0.010223	-0.019989	-0.0177	-0.052338	0.081177	0.000153	0	0.016022	0.009155	-0.014648	0.00824	-0.022888
20.806	0.00885	0.011444	0.052948	-0.00885	-0.082245	-0.023041	-0.008087	0.04364	0.052948	0.001526	0.033569	-0.003357	-0.007019	-0.013275	0.014954	-0.041809	0.016174	0.003815	-0.018311	-0.096436	0.006561	-0.020294	-0.016174	-0.038605	0.081482	-0.001678	-0.001221	0.010071	0.00061	-0.012512	0.008545	-0.026093
20.807	0.008698	0.009308	0.24246	-0.020599	-0.13702	-0.025024	-0.016785	0.32593	0.059814	-0.010834	0.011902	0.001984	0.001526	0.003967	0.014343	-0.037994	0.019073	0.008545	-0.030823	-0.051117	-0.013275	-0.014801	-0.018005	-0.04837	0.076447	-0.002136	-0.000458	0.007782	-0.016937	-0.010223	0.007019	-0.018311
20.808	0.018921	0.002136	0.31265	-0.014496	-0.15686	-0.013885	-0.025635	0.26916	0.038452	0.005798	0.006714	0.008698	-0.039978	0.008698	-0.00061	0.061035	0.050964	0.003357	0.020905	-0.081787	-0.021057	-0.017395	-0.015411	-0.014801	0.075073	0.006409	-0.003815	-0.011902	-0.018463	-0.007477	0.002594	-0.012817
20.809	0.023956	-0.004578	0.29068	-0.008087	-0.093689	-0.03891	-0.021667	-0.091858	0.008392	-0.031433	0.003204	0.007477	-0.059357	0.003662	-0.008545	0.14069	0.036316	-0.002289	0.039825	0.064392	-0.009003	-0.020142	-0.02243	0.001526	0.084991	0.003815	-0.007019	-0.002136	-0.001984	0.000763	0.007477	-0.014496
20.81	0.024719	-0.010223	0.057526	0.002289	-0.049286	-0.012207	-0.023499	-0.46143	-0.033722	-0.028687	0.013123	0.00412	-0.049286	0.012512	-0.017395	0.012665	0.024719	-0.001068	0.073853	0.029602	-0.016022	-0.014954	-0.018921	-0.001221	0.086517	0.001831	0.000916	-0.005951	-0.002289	0	0.009308	-0.017395
20.811	0.022278	-0.003662	-0.13382	0.032501	-0.026245	-0.016937	-0.025787	-0.57266	-0.056305	-0.016327	-0.000458	0.002441	-0.03952	0.014801	-0.013275	-0.032043	0.015259	-0.003815	0	0.12512	0.01709	-0.011902	-0.022278	-0.055695	0.086975	0.002441	0.004578	-0.014343	-0.020599	-0.050659	0.00351	-0.024872
20.812	0.014801	0.005646	-0.15854	0.038757	-0.014648	-0.02533	-0.035553	-0.51178	-0.063629	0.002136	-0.008545	0.002899	-0.046692	0.016022	-0.016479	0.072937	0.000458	0.00412	0.005341	0.01358	0.002594	-0.019379	-0.015259	-0.059204	0.087433	0.002289	0.002441	-0.012512	-0.04303	-0.059967	-0.003204	-0.029449
20.813	-0.008087	0.006104	-0.10361	-0.080414	-0.006714	-0.019836	-0.020752	-0.19791	-0.072937	0.005798	-0.011139	0.009766	-0.1004	0.015717	-0.031738	0.009613	0.002136	0.005493	0.00412	-0.006561	0.028076	-0.013275	-0.025482	-0.052948	0.090332	-0.00473	0.00061	-0.00946	-0.041199	-0.052338	-0.009155	-0.020599
20.814	-0.036316	-0.003052	0.00885	0.1178	-0.007477	-0.028687	0.002441	0.062866	-0.099792	0.007324	-0.026398	-0.001831	-0.1062	0.009155	-0.000916	0.016022	0.001068	0.003204	-0.059052	0.097656	0.04364	-0.017548	-0.017395	-0.032654	0.090485	-0.008392	0.001221	-0.012512	-0.030365	-0.050354	-0.019836	-0.015259
20.815	-0.031891	-0.006409	0.13947	0.11078	-0.009308	-0.026245	0.004578	0.29923	-0.103	0.002594	-0.004578	-0.012512	-0.11032	-0.007935	0.004272	0.10407	0.007019	0.002289	-0.090942	0	0.043945	-0.020905	-0.022278	0.054169	0.092468	-0.010529	0.003052	-0.015717	-0.027618	-0.059967	-0.014648	-0.018311
20.816	-0.033417	-0.013885	0.10468	0.054779	0.065155	-0.024567	0.004272	0.095673	-0.07309	-0.001831	-0.006714	-0.003052	-0.12375	0.005646	0.002747	-0.13519	-0.009918	0.002441	-0.07309	0.002441	0.064087	-0.016785	-0.025787	0.072632	0.092926	0.002136	0.00473	-0.010529	-0.033569	-0.063934	-0.020142	-0.018158
20.817	-0.006561	-0.025787	0.058594	-0.00473	0.04776	-0.016785	0.002899	0.02533	-0.037231	0.015411	-0.00473	-0.004272	-0.066376	0.009003	0.004578	0.10376	0.000458	0.011139	-0.047913	0.074921	0.074005	-0.002441	-0.028229	0.063019	0.095673	0.003815	0.005341	0.000305	-0.022278	-0.052948	-0.010834	-0.015106
20.818	-0.018616	-0.02533	-0.050049	0.003967	0.060577	-0.074921	0.000153	-0.13901	0.002747	0.007935	-0.003967	-0.005341	0.086365	0.009766	0.006409	-0.005341	0.003357	0.005035	-0.022583	0.099487	0.072937	-0.002289	-0.020142	0.037231	0.083313	-0.007324	0.004425	-0.008545	0.018311	-0.02243	0.013885	-0.021973
20.819	-0.031281	-0.031281	-0.1033	0.010834	0.21118	-0.058441	-0.00351	-0.21988	0.041656	-0.001526	-0.004425	-0.004272	0.089111	0.009308	-0.001068	-0.15213	0.001831	0.001068	-0.007629	0.1709	0.054321	0.008087	-0.020447	-0.019226	0.073242	0.001831	-0.00824	-0.012665	0.089111	0.002441	0.028534	-0.017395
20.82	-0.018463	-0.016022	-0.012054	0.011749	0.16892	-0.018616	-0.010223	-0.18295	0.059357	-0.013733	-0.007782	0.003052	0.027313	0.013733	0.005951	0.081635	0.000916	0.003357	-0.03479	0.11581	0.055389	0.002899	-0.020599	0.003967	0.074615	0.005798	0.001678	-0.018768	0.077667	0.026398	0.011139	-0.014191
